<svg width="162" height="31" fill="none" xmlns="http://www.w3.org/2000/svg"><path d="M8.78.04h13.67L31.41 31H20.84l-1.18-5.94h-8L10.34 31H.22L8.78.04Zm9.8 19.48L15.67 5.98 12.6 19.52h5.99ZM34.4.04h9.72v24.12h10.75V31H34.4V.04Zm24.21 0h11.16c4.62 0 8.2.9 10.71 2.7a8.73 8.73 0 0 1 3.83 7.56c0 2.04-.63 3.82-1.9 5.35a11.87 11.87 0 0 1-5.08 3.56c-2.13.81-4.5 1.21-7.1 1.21h-1.9V31H58.6V.04Zm11.66 14.13c1.59 0 2.82-.33 3.69-.99a3.4 3.4 0 0 0 1.3-2.88c0-1.26-.43-2.2-1.3-2.84-.84-.63-2.07-.94-3.7-.94h-1.93v7.56c.6.06 1.25.09 1.94.09ZM87.83.04h10.4V31h-10.4V.04Zm16.26 0h9.04l12.33 16.7V.04h8.06V31h-9L112.1 14.89V31h-8.01V.04Zm35.28 0h21.74v6.84h-10.8v5.63h9.85v5.67h-9.85v5.98h10.8V31h-21.74V.04Z" fill="#fff"/></svg>